<?xml version="1.0" encoding="utf-8"?>
<!-- Generator: Adobe Illustrator 21.0.0, SVG Export Plug-In . SVG Version: 6.00 Build 0)  -->
<svg version="1.1" xmlns="http://www.w3.org/2000/svg" xmlns:xlink="http://www.w3.org/1999/xlink" x="0px" y="0px"
	 viewBox="0 0 1400 980" enable-background="new 0 0 1400 980" xml:space="preserve">
<g id="Layer_3">
	<rect fill="#0D0E1F" width="1400" height="980"/>
	<path fill="#201933" d="M1195.887,288.247L1195.887,288.247c0-4.513,3.658-8.171,8.171-8.171h28.501
		c9.682,0,17.53-7.849,17.53-17.53v0c0-9.682-7.849-17.53-17.53-17.53h-94.409c-8.946,0-16.199-7.252-16.199-16.199v0
		c0-8.946,7.252-16.199,16.199-16.199h23.265c9.408,0,17.035-7.627,17.035-17.035v0c0-9.408-7.627-17.035-17.035-17.035H938.828
		c-9.408,0-17.035,7.627-17.035,17.035l0,0c0,9.408,7.627,17.035,17.035,17.035h64.384c8.496,0,15.384,6.888,15.384,15.384v0
		c0,8.496-6.888,15.384-15.384,15.384h-54.279c-7.452,0-13.494,6.041-13.494,13.494v0c0,7.452,6.041,13.494,13.494,13.494h37.273
		l0,0c0,9.092,7.37,16.462,16.462,16.462h41.378c4.546,0,8.231-3.685,8.231-8.231v0c0-4.546-3.685-8.231-8.231-8.231h-3.673
		c-7.003,0-12.679-5.677-12.679-12.679v0c0-7.003,5.677-12.679,12.679-12.679h44.26v0c0,19.364,15.697,35.061,35.061,35.061h17.194
		c4.513,0,8.171,3.658,8.171,8.171l0,0c0,4.513-3.658,8.171-8.171,8.171h-60.622c-10.102,0-18.291,8.189-18.291,18.291l0,0
		c0,10.102,8.189,18.291,18.291,18.291h233.373c10.102,0,18.291-8.189,18.291-18.291l0,0c0-10.102-8.189-18.291-18.291-18.291
		h-105.583C1199.545,296.418,1195.887,292.759,1195.887,288.247z"/>
	<path fill="#201933" d="M167.806,347.007L167.806,347.007c0,7.581,6.146,13.727,13.727,13.727h211.273
		c7.581,0,13.727-6.146,13.727-13.727v0c0-7.581-6.146-13.727-13.727-13.727H251.046c-3.767,0-6.821-3.054-6.821-6.821v0
		c0-3.767,3.054-6.821,6.821-6.821h12.646c6.412,0,11.609-5.198,11.609-11.609l0,0c0-6.412-5.198-11.609-11.609-11.609h-29.023
		c-3.767,0-6.821-3.054-6.821-6.821l0,0c0-3.767,3.054-6.821,6.821-6.821h27.008c6.943,0,12.571-5.628,12.571-12.571v0
		c0-6.943-5.628-12.571-12.571-12.571H135.063c-6.943,0-12.571,5.628-12.571,12.571v0c0,6.943,5.628,12.571,12.571,12.571h33.013
		c3.767,0,6.821,3.054,6.821,6.821l0,0c0,3.767-3.054,6.821-6.821,6.821h-5.082c-6.412,0-11.609,5.198-11.609,11.609l0,0
		c0,6.412,5.198,11.609,11.609,11.609H198.1c3.767,0,6.821,3.054,6.821,6.821v0c0,3.767-3.054,6.821-6.821,6.821h-16.567
		C173.952,333.28,167.806,339.426,167.806,347.007z"/>
	<path fill="#201933" d="M1107.912,530.525h9.45c2.797,0,5.064,2.267,5.064,5.064l0,0c0,2.797-2.267,5.064-5.064,5.064h-67.069
		c-6.475,0-11.724,5.249-11.724,11.724l0,0c0,6.475,5.249,11.724,11.724,11.724h135.196c6.475,0,11.724-5.249,11.724-11.724l0,0
		c0-6.475-5.249-11.724-11.724-11.724h-8.869c-2.797,0-5.064-2.267-5.064-5.064l0,0c0-2.797,2.267-5.064,5.064-5.064h49.341
		c6.432,0,11.646-5.214,11.646-11.646l0,0c0-6.432-5.214-11.646-11.646-11.646h-118.05c-6.432,0-11.646,5.214-11.646,11.646l0,0
		C1096.266,525.311,1101.48,530.525,1107.912,530.525z"/>
</g>
<g id="Layer_2">
	<g>
		
			<rect x="322.782" y="142.544" transform="matrix(0.9774 -0.2114 0.2114 0.9774 -24.6293 154.7436)" fill="#F7931E" width="777.04" height="100"/>
		<g>
			<polygon fill="#FFFFFF" points="1067.607,166.624 1012.482,178.549 928.971,94.301 984.096,82.376 			"/>
			<polygon fill="#FFFFFF" points="885.646,205.986 830.521,217.911 747.01,133.663 802.135,121.738 			"/>
			<polygon fill="#FFFFFF" points="703.674,245.35 648.549,257.275 565.039,173.027 620.164,161.103 			"/>
			<polygon fill="#FFFFFF" points="521.713,284.712 466.588,296.637 383.078,212.389 438.203,200.465 			"/>
		</g>
	</g>
	<path fill="#8086BB" d="M207.901,702.734c0,12.97-10.518,23.487-23.487,23.487c-12.981,0-23.487-10.518-23.487-23.487
		c0-8.604,4.629-16.132,11.537-20.222c3.506-2.074,7.585-3.265,11.95-3.265c12.591,0,22.88,9.922,23.453,22.376
		C207.89,701.989,207.901,702.356,207.901,702.734z"/>
	<path fill="#4D6897" d="M207.867,701.623c-18.95,0.195-30.488-12.248-35.403-19.111c3.506-2.074,7.585-3.265,11.95-3.265
		C197.005,679.247,207.294,689.169,207.867,701.623z"/>
	<path fill="#3E415D" d="M229.257,706.721V752h-89.698v-45.279c0-3.471,2.807-6.279,6.279-6.279h77.141
		C226.45,700.443,229.257,703.25,229.257,706.721z"/>
	<path fill="#2F3146" d="M175.787,700.443V752h-36.228v-45.279c0-3.471,2.807-6.279,6.279-6.279H175.787z"/>
	<path fill="#3E415D" d="M249.365,682.077c-1.89,1.89-3.895,3.575-6.004,5.076c-2.417,1.696-4.961,3.151-7.585,4.331
		c-16.945,7.653-37.568,4.526-51.5-9.406c-13.92-13.92-17.048-34.543-9.406-51.489c1.192-2.624,2.635-5.167,4.342-7.573
		c1.478-2.108,3.174-4.125,5.064-6.015L249.365,682.077z"/>
	<path fill="#2F3146" d="M243.361,687.152c-2.417,1.696-4.961,3.151-7.585,4.331l-60.906-60.895
		c1.192-2.624,2.635-5.167,4.342-7.573L243.361,687.152z"/>
	<path fill="#8086BB" d="M1192.099,702.734c0,12.97,10.518,23.487,23.487,23.487c12.981,0,23.487-10.518,23.487-23.487
		c0-8.604-4.629-16.132-11.537-20.222c-3.506-2.074-7.585-3.265-11.95-3.265c-12.591,0-22.88,9.922-23.453,22.376
		C1192.11,701.989,1192.099,702.356,1192.099,702.734z"/>
	<path fill="#4D6897" d="M1192.133,701.623c18.95,0.195,30.488-12.248,35.403-19.111c-3.506-2.074-7.585-3.265-11.95-3.265
		C1202.995,679.247,1192.706,689.169,1192.133,701.623z"/>
	<path fill="#3E415D" d="M1170.743,706.721V752h89.698v-45.279c0-3.471-2.807-6.279-6.278-6.279h-77.141
		C1173.55,700.443,1170.743,703.25,1170.743,706.721z"/>
	<path fill="#2F3146" d="M1224.213,700.443V752h36.228v-45.279c0-3.471-2.807-6.279-6.278-6.279H1224.213z"/>
	<path fill="#3E415D" d="M1150.635,682.077c1.89,1.89,3.895,3.575,6.004,5.076c2.417,1.696,4.961,3.151,7.585,4.331
		c16.945,7.653,37.568,4.526,51.5-9.406c13.92-13.92,17.048-34.543,9.406-51.489c-1.192-2.624-2.635-5.167-4.342-7.573
		c-1.478-2.108-3.174-4.125-5.064-6.015L1150.635,682.077z"/>
	<path fill="#2F3146" d="M1156.639,687.152c2.417,1.696,4.961,3.151,7.585,4.331l60.906-60.895
		c-1.192-2.624-2.635-5.167-4.342-7.573L1156.639,687.152z"/>
	<rect x="311.853" y="355" fill="#F15A24" width="776.295" height="436.575"/>
	<g>
		<rect x="311.85" y="255" fill="#FBB03B" width="776.297" height="100"/>
		<g>
			<polygon fill="#FFFFFF" points="1053.391,355 997.044,355 933.295,255 989.642,255 			"/>
			<polygon fill="#FFFFFF" points="867.398,355 811.052,355 747.303,255 803.649,255 			"/>
			<polygon fill="#FFFFFF" points="681.396,355 625.05,355 561.301,255 617.647,255 			"/>
			<polygon fill="#FFFFFF" points="495.404,355 439.058,355 375.309,255 431.655,255 			"/>
		</g>
	</g>
	<rect x="325.591" y="409" fill="#DA2D16" width="399.449" height="236"/>
	<path fill="#3E415D" d="M311.85,355V209.991C311.85,209.991,462,182,503,355H311.85z"/>
	<circle fill="#FFFFFF" cx="336" cy="231" r="7.75"/>
	<circle fill="#FFFFFF" cx="469.5" cy="335" r="7.75"/>
	<path fill="#2F3146" d="M408.75,319h-96.897v36H422v-22.75C422,324.932,416.068,319,408.75,319z"/>
	<rect x="311.853" y="355" fill="#F99519" width="776.295" height="32"/>
	<path opacity="0.65" fill="#F99519" d="M1041.972,296.637H555.319c-5.146,0-9.319-4.172-9.319-9.319v0
		c0-5.146,4.172-9.319,9.319-9.319h486.653c5.146,0,9.318,4.172,9.318,9.319v0C1051.29,292.465,1047.118,296.637,1041.972,296.637z"
		/>
	<path fill="#DA2D16" d="M948.795,452h145.545v-31H948.795c-8.56,0-15.5,6.94-15.5,15.5v0C933.295,445.06,940.235,452,948.795,452z"
		/>
	<path fill="#DA2D16" d="M948.795,507.09h145.545v-31H948.795c-8.56,0-15.5,6.94-15.5,15.5v0
		C933.295,500.151,940.235,507.09,948.795,507.09z"/>
	<path fill="#DA2D16" d="M948.795,562.181h145.545v-31H948.795c-8.56,0-15.5,6.94-15.5,15.5v0
		C933.295,555.241,940.235,562.181,948.795,562.181z"/>
	<path fill="#DA2D16" d="M948.795,617.271h145.545v-31H948.795c-8.56,0-15.5,6.94-15.5,15.5l0,0
		C933.295,610.332,940.235,617.271,948.795,617.271z"/>
	<path fill="#DA2D16" d="M948.795,672.362h145.545v-31H948.795c-8.56,0-15.5,6.94-15.5,15.5v0
		C933.295,665.422,940.235,672.362,948.795,672.362z"/>
	<rect x="311.853" y="409" fill="#FBB03B" width="399.449" height="236"/>
	<g>
		<path fill="#0D0E1F" d="M378.386,444.238h12.474v-12.826h8.639v33.234h-8.639v-13.62h-12.474v13.62h-8.639v-33.234h8.639V444.238z
			"/>
		<path fill="#0D0E1F" d="M412.854,432.448c2.792-1.425,5.789-2.138,8.992-2.138c3.203,0,6.2,0.713,8.992,2.138
			c2.792,1.426,5.054,3.46,6.788,6.104c1.733,2.645,2.601,5.598,2.601,8.86c0,5.377-1.727,9.778-5.179,13.201
			c-3.453,3.424-7.853,5.135-13.201,5.135s-9.749-1.711-13.201-5.135c-3.453-3.423-5.179-7.824-5.179-13.201
			c0-3.262,0.866-6.215,2.601-8.86C407.8,435.907,410.062,433.873,412.854,432.448z M428.458,441.329
			c-1.851-1.763-4.055-2.645-6.612-2.645c-2.556,0-4.76,0.882-6.611,2.645c-1.851,1.763-2.777,3.806-2.777,6.127
			c0,2.821,0.911,5.179,2.733,7.074c1.821,1.896,4.04,2.843,6.655,2.843c2.615,0,4.833-0.948,6.656-2.843
			c1.822-1.895,2.733-4.253,2.733-7.074C431.234,445.135,430.309,443.092,428.458,441.329z"/>
		<path fill="#0D0E1F" d="M452.875,431.412v25.917h10.358v7.317h-18.997v-33.234H452.875z"/>
		<path fill="#0D0E1F" d="M474.693,431.412v25.917h10.358v7.317h-18.997v-33.234H474.693z"/>
		<path fill="#0D0E1F" d="M492.413,448.69l-12.253-17.278h10.358l6.215,9.036l6.215-9.036h10.358l-12.253,17.278v15.956h-8.639
			V448.69z"/>
		<path fill="#0D0E1F" d="M520.797,431.412l5.774,21.465h0.088l6.964-21.465h6.876l6.523,21.465h0.088l6.259-21.465h8.992
			l-10.623,33.234h-8.815l-5.818-19.262h-0.088l-6.523,19.262h-8.771l-9.917-33.234H520.797z"/>
		<path fill="#0D0E1F" d="M572.234,432.448c2.792-1.425,5.789-2.138,8.992-2.138c3.203,0,6.2,0.713,8.992,2.138
			c2.792,1.426,5.054,3.46,6.788,6.104c1.733,2.645,2.601,5.598,2.601,8.86c0,5.377-1.727,9.778-5.179,13.201
			c-3.453,3.424-7.853,5.135-13.201,5.135s-9.749-1.711-13.201-5.135c-3.453-3.423-5.179-7.824-5.179-13.201
			c0-3.262,0.866-6.215,2.601-8.86C567.18,435.907,569.442,433.873,572.234,432.448z M587.838,441.329
			c-1.851-1.763-4.055-2.645-6.612-2.645c-2.556,0-4.76,0.882-6.611,2.645c-1.851,1.763-2.777,3.806-2.777,6.127
			c0,2.821,0.911,5.179,2.733,7.074c1.821,1.896,4.04,2.843,6.655,2.843c2.615,0,4.833-0.948,6.656-2.843
			c1.822-1.895,2.733-4.253,2.733-7.074C590.615,445.135,589.689,443.092,587.838,441.329z"/>
		<path fill="#0D0E1F" d="M611.331,432.448c2.792-1.425,5.789-2.138,8.992-2.138c3.203,0,6.2,0.713,8.992,2.138
			c2.792,1.426,5.054,3.46,6.788,6.104c1.733,2.645,2.601,5.598,2.601,8.86c0,5.377-1.727,9.778-5.179,13.201
			c-3.453,3.424-7.853,5.135-13.201,5.135s-9.749-1.711-13.201-5.135c-3.453-3.423-5.179-7.824-5.179-13.201
			c0-3.262,0.866-6.215,2.601-8.86C606.276,435.907,608.539,433.873,611.331,432.448z M626.934,441.329
			c-1.851-1.763-4.055-2.645-6.612-2.645c-2.556,0-4.76,0.882-6.611,2.645c-1.851,1.763-2.777,3.806-2.777,6.127
			c0,2.821,0.911,5.179,2.733,7.074c1.821,1.896,4.04,2.843,6.655,2.843c2.615,0,4.833-0.948,6.656-2.843
			c1.822-1.895,2.733-4.253,2.733-7.074C629.711,445.135,628.785,443.092,626.934,441.329z"/>
		<path fill="#0D0E1F" d="M642.713,464.646v-33.234h12.253c4.643,0,8.617,1.609,11.923,4.826c3.306,3.218,4.958,7.148,4.958,11.791
			c0,4.644-1.653,8.573-4.958,11.791c-3.306,3.218-7.28,4.827-11.923,4.827H642.713z M651.352,438.729v18.6h1.939
			c2.762,0,5.047-0.778,6.854-2.336c1.807-1.557,2.71-3.879,2.71-6.964c0-2.909-0.867-5.186-2.6-6.832
			c-1.734-1.646-4.026-2.468-6.876-2.468H651.352z"/>
	</g>
	<g>
		<path fill="#F15A24" d="M367.764,504.854l5.642-33.234h8.507l6.744,17.763l7.141-17.763h8.595l5.025,33.234h-8.639l-2.424-19.129
			h-0.088l-7.978,19.129h-3.438l-7.625-19.129h-0.088l-2.777,19.129H367.764z"/>
		<path fill="#F15A24" d="M420.788,472.656c2.792-1.425,5.789-2.138,8.992-2.138c3.203,0,6.2,0.713,8.992,2.138
			c2.792,1.426,5.054,3.46,6.788,6.104c1.733,2.645,2.601,5.598,2.601,8.86c0,5.377-1.727,9.778-5.179,13.201
			c-3.453,3.424-7.853,5.135-13.201,5.135s-9.749-1.711-13.201-5.135c-3.453-3.423-5.179-7.824-5.179-13.201
			c0-3.262,0.866-6.215,2.601-8.86C415.733,476.115,417.996,474.081,420.788,472.656z M436.391,481.537
			c-1.851-1.763-4.055-2.645-6.612-2.645c-2.556,0-4.76,0.882-6.611,2.645c-1.851,1.763-2.777,3.806-2.777,6.127
			c0,2.821,0.911,5.179,2.733,7.075c1.821,1.895,4.04,2.843,6.655,2.843c2.615,0,4.833-0.948,6.656-2.843
			c1.822-1.896,2.733-4.254,2.733-7.075C439.168,485.343,438.242,483.3,436.391,481.537z"/>
		<path fill="#F15A24" d="M458.076,471.62l8.022,20.187l8.066-20.187h9.388l-14.193,33.234h-6.7l-13.972-33.234H458.076z"/>
		<path fill="#F15A24" d="M494.351,471.62v33.234h-8.639V471.62H494.351z"/>
		<path fill="#F15A24" d="M518.901,478.937h-10.27v5.553h9.741v7.317h-9.741v5.73h10.27v7.316h-18.909V471.62h18.909V478.937z"/>
	</g>
	<g>
		<path fill="#0D0E1F" d="M390.111,539.066H378.21l-2.292,5.774h-9.168l12.782-33.234h9.433l12.518,33.234h-9.212L390.111,539.066z
			 M387.774,532.455l-3.526-10.578h-0.088l-3.57,10.578H387.774z"/>
		<path fill="#0D0E1F" d="M406.155,511.606l5.774,21.466h0.088l6.964-21.466h6.876l6.523,21.466h0.088l6.259-21.466h8.992
			l-10.623,33.234h-8.815l-5.818-19.262h-0.088l-6.523,19.262h-8.771l-9.917-33.234H406.155z"/>
		<path fill="#0D0E1F" d="M466.717,539.066h-11.901l-2.292,5.774h-9.168l12.782-33.234h9.433l12.518,33.234h-9.212L466.717,539.066z
			 M464.38,532.455l-3.526-10.578h-0.088l-3.57,10.578H464.38z"/>
		<path fill="#0D0E1F" d="M497.967,531.22l10.446,13.62h-10.755l-8.154-12.782h-0.088v12.782h-8.639v-33.234h12.915
			c3.467,0,6.259,0.853,8.375,2.557c2.116,1.705,3.174,4.261,3.174,7.67c0,2.38-0.639,4.437-1.917,6.171
			C502.044,529.737,500.259,530.809,497.967,531.22z M489.416,518.219v8.286h0.837c3.996,0,5.995-1.381,5.995-4.144
			c0-2.762-1.999-4.143-5.995-4.143H489.416z"/>
		<path fill="#0D0E1F" d="M510.749,544.841v-33.234h12.253c4.643,0,8.617,1.609,11.923,4.827c3.306,3.217,4.958,7.147,4.958,11.79
			c0,4.644-1.653,8.573-4.958,11.791s-7.28,4.826-11.923,4.826H510.749z M519.388,518.924v18.601h1.939
			c2.762,0,5.047-0.778,6.854-2.337c1.807-1.557,2.71-3.878,2.71-6.964c0-2.909-0.867-5.186-2.6-6.832
			c-1.734-1.645-4.026-2.468-6.876-2.468H519.388z"/>
		<path fill="#0D0E1F" d="M565.581,513.458l-3.438,6.7c-1.763-1.47-3.674-2.204-5.73-2.204c-0.911,0-1.756,0.25-2.535,0.749
			c-0.779,0.5-1.168,1.176-1.168,2.027c0,0.589,0.243,1.117,0.728,1.587c0.485,0.471,0.94,0.794,1.366,0.97
			c0.426,0.177,1.006,0.382,1.741,0.617l2.204,0.661c2.585,0.765,4.599,1.845,6.039,3.239c1.439,1.396,2.16,3.344,2.16,5.841
			c0,4.026-1.146,7.008-3.438,8.947c-2.468,2.087-5.613,3.13-9.432,3.13c-4.173,0-8.066-1.264-11.681-3.791l3.703-6.964
			c2.615,2.292,5.171,3.438,7.669,3.438c1.116,0,2.093-0.286,2.931-0.859c0.837-0.573,1.256-1.402,1.256-2.49
			c0-1.499-1.396-2.659-4.187-3.482c-0.088-0.028-0.441-0.132-1.058-0.309c-1.587-0.44-2.836-0.852-3.747-1.233
			c-0.911-0.382-1.822-0.918-2.732-1.609c-0.912-0.689-1.558-1.564-1.939-2.622c-0.382-1.058-0.573-2.365-0.573-3.923
			c0-3.35,1.072-6.046,3.218-8.088c2.145-2.042,4.893-3.063,8.242-3.063c1.675,0,3.46,0.25,5.355,0.749
			C562.429,511.974,564.111,512.635,565.581,513.458z"/>
	</g>
	<circle fill="#F15A24" cx="680.08" cy="618.761" r="10.254"/>
	<g>
		<g>
			<path fill="#FBB03B" d="M239.165,599.711c9.601-16.863,19.202-33.726,28.802-50.589c2.551-4.481-4.358-8.516-6.908-4.038
				c-9.601,16.863-19.202,33.726-28.802,50.589C229.706,600.154,236.615,604.189,239.165,599.711L239.165,599.711z"/>
		</g>
	</g>
	<g>
		<g>
			<path fill="#FBB03B" d="M267.667,639c22.222,0,44.444,0,66.667,0c5.148,0,5.156-8,0-8c-22.222,0-44.444,0-66.667,0
				C262.519,631,262.511,639,267.667,639L267.667,639z"/>
		</g>
	</g>
	<g>
		<g>
			<path fill="#FBB03B" d="M282.651,599.281c17.287-16.079,35.288-31.373,54.005-45.763c4.025-3.095,0.045-10.047-4.038-6.908
				c-19.263,14.81-37.832,30.465-55.624,47.014C273.216,597.138,278.883,602.786,282.651,599.281L282.651,599.281z"/>
		</g>
	</g>
	<g>
		<g>
			<path fill="#FBB03B" d="M1188.984,617.654c-11.994-19.465-23.988-38.93-35.982-58.395c-2.696-4.375-9.619-0.362-6.908,4.038
				c11.994,19.465,23.988,38.93,35.982,58.395C1184.772,626.068,1191.695,622.054,1188.984,617.654L1188.984,617.654z"/>
		</g>
	</g>
	<g>
		<g>
			<path fill="#FBB03B" d="M1138.089,652.716c-13.985,1.675-28.024,2.055-42.079,1.137c-5.14-0.336-5.12,7.666,0,8
				c14.055,0.917,28.094,0.538,42.079-1.137C1143.138,660.111,1143.198,652.104,1138.089,652.716L1138.089,652.716z"/>
		</g>
	</g>
	<g>
		<g>
			<path fill="#FBB03B" d="M1127.691,605.416c-15.275-14.057-28.859-29.74-40.502-46.929c-2.871-4.239-9.806-0.24-6.908,4.038
				c12.02,17.745,25.981,34.033,41.753,48.548C1125.817,614.555,1131.489,608.911,1127.691,605.416L1127.691,605.416z"/>
		</g>
	</g>
	<g>
		<g>
			<path fill="#FFFFFF" d="M970.077,498.59c5.148,0,5.156-8,0-8C964.929,490.59,964.921,498.59,970.077,498.59L970.077,498.59z"/>
		</g>
	</g>
	<g>
		<g>
			<path fill="#FFFFFF" d="M983.576,522.589c5.148,0,5.156-8,0-8C978.429,514.589,978.42,522.589,983.576,522.589L983.576,522.589z"
				/>
		</g>
	</g>
	<g>
		<g>
			<path fill="#FFFFFF" d="M994.076,495.59c5.148,0,5.156-8,0-8C988.928,487.59,988.92,495.59,994.076,495.59L994.076,495.59z"/>
		</g>
	</g>
	<g>
		<g>
			<path fill="#FFFFFF" d="M223.114,536.088c5.148,0,5.156-8,0-8C217.967,528.088,217.958,536.088,223.114,536.088L223.114,536.088z
				"/>
		</g>
	</g>
	<g>
		<g>
			<path fill="#FFFFFF" d="M205.115,563.087c5.148,0,5.156-8,0-8C199.968,555.087,199.959,563.087,205.115,563.087L205.115,563.087z
				"/>
		</g>
	</g>
	<g>
		<g>
			<path fill="#FFFFFF" d="M191.616,534.588c5.148,0,5.156-8,0-8C186.468,526.588,186.46,534.588,191.616,534.588L191.616,534.588z"
				/>
		</g>
	</g>
	<g>
		<g>
			<path fill="#FFFFFF" d="M1209,557c5.148,0,5.156-8,0-8C1203.852,549,1203.844,557,1209,557L1209,557z"/>
		</g>
	</g>
	<g>
		<g>
			<path fill="#FFFFFF" d="M1235.667,556.333c5.148,0,5.156-8,0-8C1230.519,548.333,1230.51,556.333,1235.667,556.333
				L1235.667,556.333z"/>
		</g>
	</g>
	<g>
		<g>
			<path fill="#FFFFFF" d="M1222.333,539.667c5.148,0,5.156-8,0-8C1217.186,531.667,1217.177,539.667,1222.333,539.667
				L1222.333,539.667z"/>
		</g>
	</g>
	<rect x="311.853" y="719" fill="#DA2D16" width="776.295" height="32.999"/>
</g>
<g id="Layer_1">
	<path fill="none" stroke="#DD0024" stroke-width="14" stroke-miterlimit="10" d="M327.183,550c0,0-41.233,37.5-124.272,37.5
		S78.638,550,78.638,550"/>
	<path fill="none" stroke="#DD0024" stroke-width="14" stroke-miterlimit="10" d="M76.66,550c0,0-41.233,37.5-124.272,37.5
		S-171.885,550-171.885,550"/>
	<path fill="none" stroke="#DD0024" stroke-width="14" stroke-miterlimit="10" d="M575.728,550c0,0-41.233,37.5-124.272,37.5
		S327.183,550,327.183,550"/>
	<path fill="none" stroke="#DD0024" stroke-width="14" stroke-miterlimit="10" d="M824.273,550c0,0-41.233,37.5-124.273,37.5
		S575.728,550,575.728,550"/>
	<path fill="none" stroke="#DD0024" stroke-width="14" stroke-miterlimit="10" d="M1072.818,550c0,0-41.233,37.5-124.272,37.5
		S824.273,550,824.273,550"/>
	<path fill="none" stroke="#DD0024" stroke-width="14" stroke-miterlimit="10" d="M1321.363,550c0,0-41.233,37.5-124.272,37.5
		c-83.039,0-124.273-37.5-124.273-37.5"/>
	<path fill="none" stroke="#DD0024" stroke-width="14" stroke-miterlimit="10" d="M1569.908,550c0,0-41.233,37.5-124.273,37.5
		c-83.039,0-124.272-37.5-124.272-37.5"/>
	<rect y="833.999" fill="#0D0E1F" width="1400" height="146.001"/>
	<rect y="751.999" fill="#ED1C24" width="1400" height="137.001"/>
	<rect y="751.999" fill="#B2151B" width="1400" height="39.577"/>
	<rect y="811.124" fill="#F7931E" width="1400" height="7.501"/>
	<g>
		<g>
			<circle fill="#60718D" cx="78.638" cy="498.118" r="16.069"/>
			<path fill="#7989A3" d="M109.221,732.333H48.054c-2.084,0-3.773,1.689-3.773,3.773v15.892h68.712v-15.892
				C112.994,734.023,111.305,732.333,109.221,732.333z"/>
			<rect x="70.115" y="529.337" fill="#60718D" width="17.046" height="202.997"/>
			<rect x="70.115" y="529.337" fill="#7989A3" width="6.546" height="202.997"/>
			<path fill="#7989A3" d="M100.16,517.333v10.34c0,2.57-2.09,4.66-4.67,4.66H61.78c-2.58,0-4.67-2.09-4.67-4.66v-10.34
				c0-2.57,2.09-4.66,4.67-4.66h33.71C98.07,512.673,100.16,514.763,100.16,517.333z"/>
			<path fill="#445D7B" d="M100.16,523.673v4c0,2.57-2.09,4.66-4.67,4.66H61.78c-2.58,0-4.67-2.09-4.67-4.66v-4H100.16z"/>
			<rect x="44.281" y="742.166" fill="#445D7B" width="68.712" height="9.833"/>
			
				<ellipse transform="matrix(0.843 -0.5379 0.5379 0.843 -252.3399 115.9344)" fill="#FFFFFF" cx="72.449" cy="490.276" rx="4.564" ry="2.531"/>
		</g>
		<g>
			<circle fill="#60718D" cx="327.183" cy="498.118" r="16.069"/>
			<path fill="#7989A3" d="M357.766,732.333h-61.167c-2.084,0-3.773,1.689-3.773,3.773v15.892h68.712v-15.892
				C361.539,734.023,359.85,732.333,357.766,732.333z"/>
			<rect x="318.66" y="529.337" fill="#60718D" width="17.046" height="202.997"/>
			<rect x="318.66" y="529.337" fill="#7989A3" width="6.546" height="202.997"/>
			<path fill="#7989A3" d="M348.705,517.333v10.34c0,2.57-2.09,4.66-4.67,4.66h-33.71c-2.58,0-4.67-2.09-4.67-4.66v-10.34
				c0-2.57,2.09-4.66,4.67-4.66h33.71C346.615,512.673,348.705,514.763,348.705,517.333z"/>
			<path fill="#445D7B" d="M348.705,523.673v4c0,2.57-2.09,4.66-4.67,4.66h-33.71c-2.58,0-4.67-2.09-4.67-4.66v-4H348.705z"/>
			<rect x="292.826" y="742.166" fill="#445D7B" width="68.712" height="9.833"/>
			
				<ellipse transform="matrix(0.843 -0.5379 0.5379 0.843 -213.3225 249.6235)" fill="#FFFFFF" cx="320.994" cy="490.276" rx="4.564" ry="2.531"/>
		</g>
		<g>
			<circle fill="#60718D" cx="575.728" cy="498.118" r="16.069"/>
			<path fill="#7989A3" d="M606.311,732.333h-61.167c-2.084,0-3.773,1.689-3.773,3.773v15.892h68.712v-15.892
				C610.084,734.023,608.395,732.333,606.311,732.333z"/>
			<rect x="567.205" y="529.337" fill="#60718D" width="17.046" height="202.997"/>
			<rect x="567.205" y="529.337" fill="#7989A3" width="6.546" height="202.997"/>
			<path fill="#7989A3" d="M597.25,517.333v10.34c0,2.57-2.09,4.66-4.67,4.66h-33.71c-2.58,0-4.67-2.09-4.67-4.66v-10.34
				c0-2.57,2.09-4.66,4.67-4.66h33.71C595.16,512.673,597.25,514.763,597.25,517.333z"/>
			<path fill="#445D7B" d="M597.25,523.673v4c0,2.57-2.09,4.66-4.67,4.66h-33.71c-2.58,0-4.67-2.09-4.67-4.66v-4H597.25z"/>
			<rect x="541.371" y="742.166" fill="#445D7B" width="68.712" height="9.833"/>
			
				<ellipse transform="matrix(0.843 -0.5379 0.5379 0.843 -174.3051 383.3127)" fill="#FFFFFF" cx="569.539" cy="490.276" rx="4.564" ry="2.531"/>
		</g>
		<g>
			<circle fill="#60718D" cx="824.272" cy="498.118" r="16.069"/>
			<path fill="#7989A3" d="M854.856,732.333h-61.167c-2.084,0-3.773,1.689-3.773,3.773v15.892h68.712v-15.892
				C858.629,734.023,856.94,732.333,854.856,732.333z"/>
			<rect x="815.75" y="529.337" fill="#60718D" width="17.046" height="202.997"/>
			<rect x="815.75" y="529.337" fill="#7989A3" width="6.546" height="202.997"/>
			<path fill="#7989A3" d="M845.795,517.333v10.34c0,2.57-2.09,4.66-4.67,4.66h-33.71c-2.58,0-4.67-2.09-4.67-4.66v-10.34
				c0-2.57,2.09-4.66,4.67-4.66h33.71C843.705,512.673,845.795,514.763,845.795,517.333z"/>
			<path fill="#445D7B" d="M845.795,523.673v4c0,2.57-2.09,4.66-4.67,4.66h-33.71c-2.58,0-4.67-2.09-4.67-4.66v-4H845.795z"/>
			<rect x="789.916" y="742.166" fill="#445D7B" width="68.712" height="9.833"/>
			
				<ellipse transform="matrix(0.843 -0.5379 0.5379 0.843 -135.2877 517.0019)" fill="#FFFFFF" cx="818.084" cy="490.276" rx="4.564" ry="2.531"/>
		</g>
		<g>
			<circle fill="#60718D" cx="1072.818" cy="498.118" r="16.069"/>
			<path fill="#7989A3" d="M1103.401,732.333h-61.167c-2.084,0-3.773,1.689-3.773,3.773v15.892h68.712v-15.892
				C1107.174,734.023,1105.484,732.333,1103.401,732.333z"/>
			<rect x="1064.295" y="529.337" fill="#60718D" width="17.046" height="202.997"/>
			<rect x="1064.295" y="529.337" fill="#7989A3" width="6.546" height="202.997"/>
			<path fill="#7989A3" d="M1094.34,517.333v10.34c0,2.57-2.09,4.66-4.67,4.66h-33.71c-2.58,0-4.67-2.09-4.67-4.66v-10.34
				c0-2.57,2.09-4.66,4.67-4.66h33.71C1092.25,512.673,1094.34,514.763,1094.34,517.333z"/>
			<path fill="#445D7B" d="M1094.34,523.673v4c0,2.57-2.09,4.66-4.67,4.66h-33.71c-2.58,0-4.67-2.09-4.67-4.66v-4H1094.34z"/>
			<rect x="1038.461" y="742.166" fill="#445D7B" width="68.712" height="9.833"/>
			
				<ellipse transform="matrix(0.843 -0.5379 0.5379 0.843 -96.2703 650.6911)" fill="#FFFFFF" cx="1066.629" cy="490.276" rx="4.564" ry="2.531"/>
		</g>
		<g>
			<circle fill="#60718D" cx="1321.362" cy="498.118" r="16.069"/>
			<path fill="#7989A3" d="M1351.946,732.333h-61.167c-2.084,0-3.773,1.689-3.773,3.773v15.892h68.712v-15.892
				C1355.719,734.023,1354.029,732.333,1351.946,732.333z"/>
			<rect x="1312.84" y="529.337" fill="#60718D" width="17.046" height="202.997"/>
			<rect x="1312.84" y="529.337" fill="#7989A3" width="6.546" height="202.997"/>
			<path fill="#7989A3" d="M1342.885,517.333v10.34c0,2.57-2.09,4.66-4.67,4.66h-33.71c-2.58,0-4.67-2.09-4.67-4.66v-10.34
				c0-2.57,2.09-4.66,4.67-4.66h33.71C1340.795,512.673,1342.885,514.763,1342.885,517.333z"/>
			<path fill="#445D7B" d="M1342.885,523.673v4c0,2.57-2.09,4.66-4.67,4.66h-33.71c-2.58,0-4.67-2.09-4.67-4.66v-4H1342.885z"/>
			<rect x="1287.006" y="742.166" fill="#445D7B" width="68.712" height="9.833"/>
			
				<ellipse transform="matrix(0.843 -0.5379 0.5379 0.843 -57.253 784.3802)" fill="#FFFFFF" cx="1315.174" cy="490.276" rx="4.564" ry="2.531"/>
		</g>
	</g>
	<g>
		<g>
			<path fill="#FFFFFF" d="M182,776.75c135.1,0,270.201,0,405.301,0c134.411,0,268.822,0,403.234,0c75.822,0,151.643,0,227.465,0
				c4.826,0,4.834-7.5,0-7.5c-135.1,0-270.201,0-405.301,0c-134.411,0-268.822,0-403.234,0c-75.822,0-151.643,0-227.465,0
				C177.174,769.25,177.166,776.75,182,776.75L182,776.75z"/>
		</g>
	</g>
</g>
</svg>
